<?xml version="1.0" encoding="utf-8"?>
<!-- Generator: Adobe Illustrator 25.4.1, SVG Export Plug-In . SVG Version: 6.00 Build 0)  -->
<svg version="1.1" xmlns="http://www.w3.org/2000/svg" xmlns:xlink="http://www.w3.org/1999/xlink" x="0px" y="0px"
	 viewBox="0 0 1080 1080" style="enable-background:new 0 0 1080 1080;" xml:space="preserve">
<style type="text/css">
	.st0{display:none;}
	.st1{display:inline;}
	.st2{fill:#FFFFFF;}
	.st3{fill:#99CCFF;}
	.st4{fill:#AAAAAA;}
	.st5{fill:none;stroke:#FFFFFF;stroke-width:2.2;stroke-miterlimit:10;}
	.st6{fill:#70E400;}
	
		.st7{fill:none;stroke:#70E400;stroke-width:0.9825;stroke-miterlimit:10;stroke-dasharray:6.5693,6.5694,6.5694,6.5694,6.5694,6.5694;}
	
		.st8{fill:none;stroke:#B3B3B3;stroke-width:0.9825;stroke-miterlimit:10;stroke-dasharray:6.5694,6.5694,6.5694,6.5694,6.5694,6.5694;}
	
		.st9{fill:none;stroke:#66CCFF;stroke-width:0.9825;stroke-miterlimit:10;stroke-dasharray:6.5694,6.5694,6.5694,6.5694,6.5694,6.5694;}
	.st10{fill:#FF0000;}
	.st11{fill:#66CCFF;}
	.st12{fill:none;stroke:#66CCFF;stroke-width:1.9651;stroke-miterlimit:10;}
	.st13{fill:none;stroke:#FF0000;stroke-width:1.9651;stroke-miterlimit:10;}
	.st14{fill:none;stroke:#FFFFFF;stroke-width:1.0593;stroke-miterlimit:10;}
	.st15{fill:none;stroke:#000000;stroke-width:1.0593;stroke-miterlimit:10;}
	.st16{fill:none;stroke:#000000;stroke-width:2.2;stroke-miterlimit:10;}
	.st17{clip-path:url(#SVGID_00000003801081033035718330000014630200107971111346_);}
	.st18{clip-path:url(#SVGID_00000101814617311460377050000012690326541111454374_);}
	.st19{clip-path:url(#SVGID_00000101814617311460377050000012690326541111454374_);fill:#FFFFFF;}
	.st20{clip-path:url(#SVGID_00000105396697759328395630000011110519862044054659_);}
	.st21{clip-path:url(#SVGID_00000105396697759328395630000011110519862044054659_);fill:#FFFFFF;}
	.st22{clip-path:url(#SVGID_00000039854024401451266910000003666414271347699118_);}
	.st23{clip-path:url(#SVGID_00000180337352617227016840000016055162239330245037_);}
	.st24{clip-path:url(#SVGID_00000066485610144419024670000007846925144570013870_);}
	.st25{clip-path:url(#SVGID_00000037656058889666522050000011427329915788636330_);}
	.st26{clip-path:url(#SVGID_00000086661606944503748770000010319058543812002725_);}
	
		.st27{fill:none;stroke:#AAAAAA;stroke-width:3.8806;stroke-miterlimit:10;stroke-dasharray:19.4032,19.4032,19.4032,19.4032,19.4032,19.4032;}
</style>
<g id="Background__x28_turn_off_for_transparant_logos_x29_" class="st0">
</g>
<g id="Artwork">
	<g id="Isolation_Mode_00000072977325917253886790000016600931420103765417_">
	</g>
	<g id="Isolation_Mode_00000033342632443773965340000015124181062309927071_">
	</g>
	<g id="Isolation_Mode">
	</g>
	<g>
		<polygon points="578.5,434.9 646.61,316.94 960.86,862.3 540.27,862.3 608.35,744.39 756.84,744.39 646.53,552.95 573.36,679.68 
			437.22,679.68 578.52,434.93 		"/>
		<polygon class="st3" points="540.01,368.09 540.1,368.26 608.21,250.29 540.01,131.94 471.79,250.33 539.89,368.29 		"/>
		<polygon class="st3" points="537.36,744.39 536.27,744.39 536,744.39 400.12,744.39 399.85,744.39 323.17,744.39 420.51,575.47 
			501.49,434.94 433.38,316.98 318.35,516.6 119.15,862.3 469.29,862.3 		"/>
	</g>
	<g id="Isolation_Mode_00000149368335959233234600000013624784908626565782_">
	</g>
	<g id="Isolation_Mode_00000093153518498487479220000008540903874771820732_">
	</g>
	<g>
		<polygon points="578.5,434.9 646.61,316.94 960.86,862.3 540.27,862.3 608.35,744.39 756.84,744.39 646.53,552.95 573.36,679.68 
			437.22,679.68 578.52,434.93 		"/>
		<polygon class="st3" points="540.01,368.09 540.1,368.26 608.21,250.29 540.01,131.94 471.79,250.33 539.89,368.29 		"/>
		<polygon class="st3" points="537.36,744.39 536.27,744.39 536,744.39 400.12,744.39 399.85,744.39 323.17,744.39 420.51,575.47 
			501.49,434.94 433.38,316.98 318.35,516.6 119.15,862.3 469.29,862.3 		"/>
	</g>
</g>
<g id="NOTES">
</g>
</svg>
