<?xml version="1.0" encoding="utf-8"?>
<!-- Generator: Adobe Illustrator 25.4.1, SVG Export Plug-In . SVG Version: 6.00 Build 0)  -->
<svg version="1.1" xmlns="http://www.w3.org/2000/svg" xmlns:xlink="http://www.w3.org/1999/xlink" x="0px" y="0px"
	 viewBox="0 0 1080 1080" style="enable-background:new 0 0 1080 1080;" xml:space="preserve">
<style type="text/css">
	.st0{display:none;}
	.st1{display:inline;}
	.st2{fill:#FFFFFF;}
	.st3{fill:#99CCFF;}
	.st4{fill:#AAAAAA;}
	.st5{fill:none;stroke:#FFFFFF;stroke-width:2.2;stroke-miterlimit:10;}
	.st6{fill:#70E400;}
	
		.st7{fill:none;stroke:#70E400;stroke-width:0.9825;stroke-miterlimit:10;stroke-dasharray:6.5693,6.5694,6.5694,6.5694,6.5694,6.5694;}
	
		.st8{fill:none;stroke:#B3B3B3;stroke-width:0.9825;stroke-miterlimit:10;stroke-dasharray:6.5694,6.5694,6.5694,6.5694,6.5694,6.5694;}
	
		.st9{fill:none;stroke:#66CCFF;stroke-width:0.9825;stroke-miterlimit:10;stroke-dasharray:6.5694,6.5694,6.5694,6.5694,6.5694,6.5694;}
	.st10{fill:#FF0000;}
	.st11{fill:#66CCFF;}
	.st12{fill:none;stroke:#66CCFF;stroke-width:1.9651;stroke-miterlimit:10;}
	.st13{fill:none;stroke:#FF0000;stroke-width:1.9651;stroke-miterlimit:10;}
	.st14{fill:none;stroke:#FFFFFF;stroke-width:1.0593;stroke-miterlimit:10;}
	.st15{fill:none;stroke:#000000;stroke-width:1.0593;stroke-miterlimit:10;}
	.st16{fill:none;stroke:#000000;stroke-width:2.2;stroke-miterlimit:10;}
	.st17{clip-path:url(#SVGID_00000032649557336666950610000016893481788921433005_);}
	.st18{clip-path:url(#SVGID_00000017508309243760539970000013166828926504568978_);}
	.st19{clip-path:url(#SVGID_00000017508309243760539970000013166828926504568978_);fill:#FFFFFF;}
	.st20{clip-path:url(#SVGID_00000085246968937645461910000009708049777061783945_);}
	.st21{clip-path:url(#SVGID_00000085246968937645461910000009708049777061783945_);fill:#FFFFFF;}
	.st22{clip-path:url(#SVGID_00000160912699043367775850000008854415347304273322_);}
	.st23{clip-path:url(#SVGID_00000047765416241010823630000014375651047220603325_);}
	.st24{clip-path:url(#SVGID_00000090990940407102251120000013424334087157116075_);}
	.st25{clip-path:url(#SVGID_00000154390007477978332510000009540326594930766221_);}
	.st26{clip-path:url(#SVGID_00000041974027847563139520000015251071504136654477_);}
	
		.st27{fill:none;stroke:#AAAAAA;stroke-width:3.8806;stroke-miterlimit:10;stroke-dasharray:19.4032,19.4032,19.4032,19.4032,19.4032,19.4032;}
</style>
<g id="Background__x28_turn_off_for_transparant_logos_x29_" class="st0">
</g>
<g id="Artwork">
	<g id="Isolation_Mode_00000072977325917253886790000016600931420103765417_">
	</g>
	<g id="Isolation_Mode_00000033342632443773965340000015124181062309927071_">
	</g>
	<g id="Isolation_Mode">
	</g>
	<path d="M578.5,434.9l68.1-117.96L960.86,862.3H540.27l68.07-117.91h148.5L646.53,552.95l-73.17,126.73H437.22l141.3-244.75
		L578.5,434.9z M540.01,368.09l0.09,0.16l68.11-117.96l-68.2-118.35l-68.22,118.39l68.11,117.96L540.01,368.09z M537.36,744.39
		h-1.09H536H400.12h-0.27h-76.68l97.34-168.92l80.98-140.53l-68.11-117.96L318.35,516.6l-199.2,345.7h350.14L537.36,744.39z"/>
	<g id="Isolation_Mode_00000149368335959233234600000013624784908626565782_">
	</g>
	<g id="Isolation_Mode_00000093153518498487479220000008540903874771820732_">
	</g>
	<path d="M578.5,434.9l68.1-117.96L960.86,862.3H540.27l68.07-117.91h148.5L646.53,552.95l-73.17,126.73H437.22l141.3-244.75
		L578.5,434.9z M540.01,368.09l0.09,0.16l68.11-117.96l-68.2-118.35l-68.22,118.39l68.11,117.96L540.01,368.09z M537.36,744.39
		h-1.09H536H400.12h-0.27h-76.68l97.34-168.92l80.98-140.53l-68.11-117.96L318.35,516.6l-199.2,345.7h350.14L537.36,744.39z"/>
</g>
<g id="NOTES">
</g>
</svg>
