<?xml version="1.0" encoding="utf-8"?>
<!-- Generator: Adobe Illustrator 25.4.1, SVG Export Plug-In . SVG Version: 6.00 Build 0)  -->
<svg version="1.1" xmlns="http://www.w3.org/2000/svg" xmlns:xlink="http://www.w3.org/1999/xlink" x="0px" y="0px"
	 viewBox="0 0 1080 1080" style="enable-background:new 0 0 1080 1080;" xml:space="preserve">
<style type="text/css">
	.st0{display:none;}
	.st1{display:inline;}
	.st2{fill:#FFFFFF;}
	.st3{fill:#99CCFF;}
	.st4{fill:#AAAAAA;}
	.st5{fill:none;stroke:#FFFFFF;stroke-width:2.2;stroke-miterlimit:10;}
	.st6{fill:#70E400;}
	
		.st7{fill:none;stroke:#70E400;stroke-width:0.9825;stroke-miterlimit:10;stroke-dasharray:6.5693,6.5694,6.5694,6.5694,6.5694,6.5694;}
	
		.st8{fill:none;stroke:#B3B3B3;stroke-width:0.9825;stroke-miterlimit:10;stroke-dasharray:6.5694,6.5694,6.5694,6.5694,6.5694,6.5694;}
	
		.st9{fill:none;stroke:#66CCFF;stroke-width:0.9825;stroke-miterlimit:10;stroke-dasharray:6.5694,6.5694,6.5694,6.5694,6.5694,6.5694;}
	.st10{fill:#FF0000;}
	.st11{fill:#66CCFF;}
	.st12{fill:none;stroke:#66CCFF;stroke-width:1.9651;stroke-miterlimit:10;}
	.st13{fill:none;stroke:#FF0000;stroke-width:1.9651;stroke-miterlimit:10;}
	.st14{fill:none;stroke:#FFFFFF;stroke-width:1.0593;stroke-miterlimit:10;}
	.st15{fill:none;stroke:#000000;stroke-width:1.0593;stroke-miterlimit:10;}
	.st16{fill:none;stroke:#000000;stroke-width:2.2;stroke-miterlimit:10;}
	.st17{clip-path:url(#SVGID_00000181788941865993124550000007994688491134552473_);}
	.st18{clip-path:url(#SVGID_00000126295298959372437540000011998222386484126386_);}
	.st19{clip-path:url(#SVGID_00000126295298959372437540000011998222386484126386_);fill:#FFFFFF;}
	.st20{clip-path:url(#SVGID_00000094590504739935444620000009918508914487272092_);}
	.st21{clip-path:url(#SVGID_00000094590504739935444620000009918508914487272092_);fill:#FFFFFF;}
	.st22{clip-path:url(#SVGID_00000051376074515976036840000014631884645503975344_);}
	.st23{clip-path:url(#SVGID_00000081640552483490575690000013471287551911623820_);}
	.st24{clip-path:url(#SVGID_00000108278505138221295260000007420957088109820587_);}
	.st25{clip-path:url(#SVGID_00000041268670143145660230000012413703922689587087_);}
	.st26{clip-path:url(#SVGID_00000067932074573333636920000006054496661756825277_);}
	
		.st27{fill:none;stroke:#AAAAAA;stroke-width:3.8806;stroke-miterlimit:10;stroke-dasharray:19.4032,19.4032,19.4032,19.4032,19.4032,19.4032;}
</style>
<g id="Background__x28_turn_off_for_transparant_logos_x29_" class="st0">
	<rect x="-35.88" y="-35.88" class="st1" width="1151.77" height="1151.77"/>
</g>
<g id="Artwork">
	<g id="Isolation_Mode_00000072977325917253886790000016600931420103765417_">
	</g>
	<g id="Isolation_Mode_00000033342632443773965340000015124181062309927071_">
	</g>
	<g id="Isolation_Mode">
	</g>
	<g>
		<polygon class="st2" points="578.5,434.9 646.61,316.94 960.86,862.3 540.27,862.3 608.35,744.39 756.84,744.39 646.53,552.95 
			573.36,679.68 437.22,679.68 578.52,434.93 		"/>
		<polygon class="st3" points="540.01,368.09 540.1,368.26 608.21,250.29 540.01,131.94 471.79,250.33 539.89,368.29 		"/>
		<polygon class="st3" points="537.36,744.39 536.27,744.39 536,744.39 400.12,744.39 399.85,744.39 323.17,744.39 420.51,575.47 
			501.49,434.94 433.38,316.98 318.35,516.6 119.15,862.3 469.29,862.3 		"/>
	</g>
	<g id="Isolation_Mode_00000149368335959233234600000013624784908626565782_">
	</g>
	<g id="Isolation_Mode_00000093153518498487479220000008540903874771820732_">
	</g>
	<g>
		<polygon class="st2" points="578.5,434.9 646.61,316.94 960.86,862.3 540.27,862.3 608.35,744.39 756.84,744.39 646.53,552.95 
			573.36,679.68 437.22,679.68 578.52,434.93 		"/>
		<polygon class="st3" points="540.01,368.09 540.1,368.26 608.21,250.29 540.01,131.94 471.79,250.33 539.89,368.29 		"/>
		<polygon class="st3" points="537.36,744.39 536.27,744.39 536,744.39 400.12,744.39 399.85,744.39 323.17,744.39 420.51,575.47 
			501.49,434.94 433.38,316.98 318.35,516.6 119.15,862.3 469.29,862.3 		"/>
	</g>
</g>
<g id="NOTES">
</g>
</svg>
