<?xml version="1.0" encoding="utf-8"?>
<!-- Generator: Adobe Illustrator 25.4.1, SVG Export Plug-In . SVG Version: 6.00 Build 0)  -->
<svg version="1.1" xmlns="http://www.w3.org/2000/svg" xmlns:xlink="http://www.w3.org/1999/xlink" x="0px" y="0px"
	 viewBox="0 0 1080 1080" style="enable-background:new 0 0 1080 1080;" xml:space="preserve">
<style type="text/css">
	.st0{display:none;}
	.st1{display:inline;}
	.st2{fill:#FFFFFF;}
	.st3{fill:#99CCFF;}
	.st4{fill:#AAAAAA;}
	.st5{fill:none;stroke:#FFFFFF;stroke-width:2.2;stroke-miterlimit:10;}
	.st6{fill:#70E400;}
	
		.st7{fill:none;stroke:#70E400;stroke-width:0.9825;stroke-miterlimit:10;stroke-dasharray:6.5693,6.5694,6.5694,6.5694,6.5694,6.5694;}
	
		.st8{fill:none;stroke:#B3B3B3;stroke-width:0.9825;stroke-miterlimit:10;stroke-dasharray:6.5694,6.5694,6.5694,6.5694,6.5694,6.5694;}
	
		.st9{fill:none;stroke:#66CCFF;stroke-width:0.9825;stroke-miterlimit:10;stroke-dasharray:6.5694,6.5694,6.5694,6.5694,6.5694,6.5694;}
	.st10{fill:#FF0000;}
	.st11{fill:#66CCFF;}
	.st12{fill:none;stroke:#66CCFF;stroke-width:1.9651;stroke-miterlimit:10;}
	.st13{fill:none;stroke:#FF0000;stroke-width:1.9651;stroke-miterlimit:10;}
	.st14{fill:none;stroke:#FFFFFF;stroke-width:1.0593;stroke-miterlimit:10;}
	.st15{fill:none;stroke:#000000;stroke-width:1.0593;stroke-miterlimit:10;}
	.st16{fill:none;stroke:#000000;stroke-width:2.2;stroke-miterlimit:10;}
	.st17{clip-path:url(#SVGID_00000046314462801411401500000006080843031090669740_);}
	.st18{clip-path:url(#SVGID_00000183210538930150795840000012758320810753106857_);}
	.st19{clip-path:url(#SVGID_00000183210538930150795840000012758320810753106857_);fill:#FFFFFF;}
	.st20{clip-path:url(#SVGID_00000062180394005179525550000018335734578186724781_);}
	.st21{clip-path:url(#SVGID_00000062180394005179525550000018335734578186724781_);fill:#FFFFFF;}
	.st22{clip-path:url(#SVGID_00000035503333342213716010000016828023257174082733_);}
	.st23{clip-path:url(#SVGID_00000144334873194105583890000010839278366885688971_);}
	.st24{clip-path:url(#SVGID_00000039821492794932480020000015896557167265441920_);}
	.st25{clip-path:url(#SVGID_00000171707463157442443540000009884342347881405846_);}
	.st26{clip-path:url(#SVGID_00000072242329958879900560000003833463842721128581_);}
	
		.st27{fill:none;stroke:#AAAAAA;stroke-width:3.8806;stroke-miterlimit:10;stroke-dasharray:19.4032,19.4032,19.4032,19.4032,19.4032,19.4032;}
</style>
<g id="Background__x28_turn_off_for_transparant_logos_x29_" class="st0">
	<rect x="-35.88" y="-35.88" class="st1" width="1151.77" height="1151.77"/>
</g>
<g id="Artwork">
	<g id="Isolation_Mode_00000072977325917253886790000016600931420103765417_">
	</g>
	<g id="Isolation_Mode_00000033342632443773965340000015124181062309927071_">
	</g>
	<g id="Isolation_Mode">
	</g>
	<g>
		<polygon class="st2" points="582.25,350.31 650.22,232.58 963.84,776.85 544.09,776.85 612.03,659.18 760.23,659.18 
			650.13,468.12 577.11,594.6 441.24,594.6 582.26,350.34 		"/>
		<polygon class="st3" points="543.83,283.64 543.92,283.8 611.89,166.07 543.83,47.96 475.74,166.11 543.71,283.84 		"/>
		<polygon class="st3" points="541.19,659.18 540.09,659.18 539.83,659.18 404.22,659.18 403.95,659.18 327.43,659.18 424.57,490.6 
			505.39,350.35 437.42,232.62 322.62,431.85 123.81,776.85 473.25,776.85 		"/>
	</g>
	<g id="Isolation_Mode_00000149368335959233234600000013624784908626565782_">
	</g>
	<g id="Isolation_Mode_00000093153518498487479220000008540903874771820732_">
	</g>
	<g>
		<polygon class="st2" points="582.25,350.31 650.22,232.58 963.84,776.85 544.09,776.85 612.03,659.18 760.23,659.18 
			650.13,468.12 577.11,594.6 441.24,594.6 582.26,350.34 		"/>
		<polygon class="st3" points="543.83,283.64 543.92,283.8 611.89,166.07 543.83,47.96 475.74,166.11 543.71,283.84 		"/>
		<polygon class="st3" points="541.19,659.18 540.09,659.18 539.83,659.18 404.22,659.18 403.95,659.18 327.43,659.18 424.57,490.6 
			505.39,350.35 437.42,232.62 322.62,431.85 123.81,776.85 473.25,776.85 		"/>
	</g>
</g>
<g id="NOTES">
	<rect x="-703.5" y="-400.95" class="st27" width="4688.73" height="3360.97"/>
	<rect x="-703.5" y="-400.95" class="st27" width="4688.73" height="3360.97"/>
</g>
</svg>
