<?xml version="1.0" encoding="utf-8"?>
<!-- Generator: Adobe Illustrator 25.4.1, SVG Export Plug-In . SVG Version: 6.00 Build 0)  -->
<svg version="1.1" xmlns="http://www.w3.org/2000/svg" xmlns:xlink="http://www.w3.org/1999/xlink" x="0px" y="0px"
	 viewBox="0 0 1080 1080" style="enable-background:new 0 0 1080 1080;" xml:space="preserve">
<style type="text/css">
	.st0{display:none;}
	.st1{display:inline;}
	.st2{fill:#FFFFFF;}
	.st3{fill:#99CCFF;}
	.st4{fill:#AAAAAA;}
	.st5{fill:none;stroke:#FFFFFF;stroke-width:2.2;stroke-miterlimit:10;}
	.st6{fill:#70E400;}
	
		.st7{fill:none;stroke:#70E400;stroke-width:0.9825;stroke-miterlimit:10;stroke-dasharray:6.5693,6.5694,6.5694,6.5694,6.5694,6.5694;}
	
		.st8{fill:none;stroke:#B3B3B3;stroke-width:0.9825;stroke-miterlimit:10;stroke-dasharray:6.5694,6.5694,6.5694,6.5694,6.5694,6.5694;}
	
		.st9{fill:none;stroke:#66CCFF;stroke-width:0.9825;stroke-miterlimit:10;stroke-dasharray:6.5694,6.5694,6.5694,6.5694,6.5694,6.5694;}
	.st10{fill:#FF0000;}
	.st11{fill:#66CCFF;}
	.st12{fill:none;stroke:#66CCFF;stroke-width:1.9651;stroke-miterlimit:10;}
	.st13{fill:none;stroke:#FF0000;stroke-width:1.9651;stroke-miterlimit:10;}
	.st14{fill:none;stroke:#FFFFFF;stroke-width:1.0593;stroke-miterlimit:10;}
	.st15{fill:none;stroke:#000000;stroke-width:1.0593;stroke-miterlimit:10;}
	.st16{fill:none;stroke:#000000;stroke-width:2.2;stroke-miterlimit:10;}
	
		.st17{fill:none;stroke:#AAAAAA;stroke-width:3.8806;stroke-miterlimit:10;stroke-dasharray:19.4032,19.4032,19.4032,19.4032,19.4032,19.4032;}
</style>
<g id="Background__x28_turn_off_for_transparant_logos_x29_" class="st0">
	<rect x="-35.88" y="-35.88" class="st1" width="1151.77" height="1151.77"/>
</g>
<g id="Artwork">
	<g id="Isolation_Mode_00000072977325917253886790000016600931420103765417_">
	</g>
	<g id="Isolation_Mode_00000033342632443773965340000015124181062309927071_">
	</g>
	<g id="Isolation_Mode">
	</g>
	<g>
		<g>
			<path class="st2" d="M257.67,442.48c-33.18,33.77-63.01,71.06-87.2,111.95c-12.07,20.44-22.71,41.78-31.31,63.98
				c-8.59,22.19-15.14,45.27-18.72,68.92c-3.47,23.64-3.97,47.92,0.1,71.69c1.95,11.88,5.2,23.57,9.49,34.85
				c3.58,9.35,8.06,18.36,13.24,26.95l4.89-8.49c-3.96-6.9-7.45-14.07-10.33-21.49c-4.14-10.72-7.31-21.84-9.24-33.22
				c-4.03-22.74-3.7-46.19-0.46-69.17c3.34-23,9.61-45.6,17.91-67.41c8.31-21.82,18.65-42.88,30.44-63.1
				c23.61-40.45,52.91-77.52,85.59-111.17c32.78-33.6,69.05-63.79,107.79-90.35c20.5-14.12,41.73-27.21,63.58-39.16l0.17-0.3
				l0.09,0.16c19.3-10.55,39.09-20.21,59.31-28.87c0.24-0.1,0.49-0.2,0.73-0.31l-2.02-3.49c-0.09,0.04-0.18,0.07-0.27,0.11
				c-43.65,18.21-85.38,40.97-124.6,67.43C327.67,378.54,290.94,408.76,257.67,442.48z"/>
			<path class="st2" d="M900.41,357.73c-4.31-11.03-9.88-21.54-16.39-31.41c-6.61-9.8-14.16-18.99-22.69-27.18
				c-8.54-8.17-17.85-15.55-27.87-21.83c-19.95-12.71-42.21-21.51-65.11-27.22c-22.94-5.66-46.55-8.44-70.16-8.9
				c-23.63-0.46-47.27,1.33-70.64,4.79c-6.59,0.97-13.15,2.09-19.7,3.33l0.56,0.98l-0.96,1.67c6.79-1.38,13.6-2.64,20.44-3.75
				c23.23-3.66,46.75-5.64,70.28-5.4c23.51,0.28,47.06,2.74,69.93,8.3c11.43,2.78,22.65,6.41,33.54,10.85
				c10.9,4.42,21.42,9.79,31.33,16.11c9.95,6.27,19.2,13.62,27.66,21.77c8.46,8.16,15.94,17.3,22.48,27.06
				c6.39,9.86,11.83,20.34,16.01,31.31c4.15,10.98,7.3,22.34,9.19,33.93c3.92,23.17,3.28,46.93-0.22,70.1
				c-3.63,23.19-10.31,45.82-18.94,67.61c-8.65,21.8-19.32,42.76-31.4,62.84c-1.77,2.94-3.59,5.86-5.42,8.76l3.4,5.89
				c2.37-3.89,4.7-7.8,6.97-11.76c11.78-20.58,22.09-42.02,30.34-64.25c8.26-22.21,14.39-45.25,17.69-68.72
				c3.21-23.45,3.4-47.43-0.78-70.76C907.96,380.2,904.69,368.76,900.41,357.73z"/>
			<path class="st2" d="M724.53,744.83c-1.96,1.64-3.92,3.27-5.9,4.89c-18.06,14.9-36.88,28.86-56.28,41.96
				c-38.72,26.3-79.92,48.98-123.02,67.12c-21.55,9.06-43.53,17.09-65.93,23.71c-22.41,6.55-45.19,11.87-68.23,15.46
				c-5.77,0.85-11.53,1.75-17.32,2.37c-5.78,0.76-11.58,1.22-17.38,1.74c-2.9,0.26-5.81,0.37-8.71,0.56
				c-2.91,0.19-5.81,0.36-8.72,0.41l-8.72,0.24l-8.72-0.02c-23.25-0.24-46.47-2.76-68.99-8.16c-11.23-2.78-22.28-6.28-32.97-10.61
				c-2.65-1.14-5.34-2.18-7.95-3.41l-7.8-3.73l-7.59-4.11c-2.52-1.39-4.92-2.97-7.39-4.45c-3.27-2.06-6.46-4.24-9.58-6.52H178.9
				c6.07,5.13,12.48,9.86,19.17,14.14c2.58,1.57,5.1,3.24,7.73,4.72l7.93,4.36l8.13,3.95c2.72,1.3,5.52,2.4,8.28,3.61
				c11.13,4.59,22.59,8.3,34.22,11.26c23.31,5.76,47.23,8.55,71.11,8.98l8.96,0.1l8.95-0.18c2.99-0.03,5.97-0.18,8.94-0.35
				c2.98-0.17,5.96-0.27,8.94-0.51c5.94-0.49,11.9-0.91,17.81-1.64c5.94-0.59,11.83-1.46,17.73-2.29
				c23.57-3.57,46.83-8.89,69.69-15.48c22.84-6.68,45.29-14.66,67.18-23.92c43.77-18.58,85.52-41.72,124.72-68.52
				c19.54-13.48,38.49-27.83,56.65-43.12c4.89-4.1,9.71-8.28,14.47-12.52L724.53,744.83z"/>
		</g>
		<g>
			<polygon class="st2" points="578.73,434.9 646.83,316.94 961.09,862.3 540.49,862.3 608.57,744.39 757.06,744.39 646.75,552.95 
				573.58,679.68 437.44,679.68 578.74,434.93 			"/>
			<polygon class="st3" points="540.23,368.09 540.32,368.26 608.43,250.29 540.23,131.94 472.01,250.33 540.11,368.29 			"/>
			<polygon class="st3" points="537.58,744.39 536.49,744.39 536.22,744.39 400.34,744.39 400.07,744.39 323.39,744.39 
				420.73,575.47 501.71,434.94 433.61,316.98 318.57,516.6 119.37,862.3 469.51,862.3 			"/>
		</g>
		<path d="M660.51,798.89c-2.39,3.42-5.13,6.34-8,9.09c-2.88,2.73-5.91,5.25-9.06,7.58c-3.15,2.33-6.5,4.35-10.03,6.07
			c-3.54,1.7-7.11,3.32-10.6,5.08c-3.5,1.75-7,3.47-10.52,5.16c-3.55,1.64-7.1,3.26-10.67,4.85c-7.17,3.11-14.37,6.12-21.7,8.82
			l-0.47-0.95c6.57-4.2,13.15-8.32,19.65-12.56c3.26-2.09,6.51-4.2,9.74-6.34c3.25-2.09,6.49-4.21,9.71-6.35
			c3.22-2.13,6.33-4.46,9.44-6.75c3.12-2.28,6.39-4.31,9.83-6.07c3.43-1.77,6.96-3.4,10.61-4.86c3.66-1.45,7.4-2.78,11.48-3.65
			L660.51,798.89z"/>
		<path d="M617.45,794.47c-2.96,1.65-5.95,3.33-8.95,5.01c-0.28-0.37,0.04-0.58,0.16-0.8c1.75-3.04,3.51-6.06,5.27-9.09
			c0.27-0.46,0.57-0.91,0.8-1.39c0.44-0.92,1.13-1.59,1.94-2.18c2.49-1.81,4.96-3.64,7.44-5.47c2.44-1.81,4.87-3.63,7.31-5.44
			c2.47-1.83,4.95-3.65,7.43-5.48c2.47-1.83,4.94-3.68,7.41-5.51c0.82-0.61,1.65-1.21,2.52-1.84c-0.02,0.55-0.43,0.81-0.69,1.13
			c-4.76,5.72-9.54,11.43-14.31,17.14c-1.77,2.12-3.53,4.23-5.29,6.35c-0.23,0.28-0.45,0.57-0.73,0.93c0.7,0.47,1.45,0.68,2.15,1
			c0.71,0.32,1.43,0.61,2.15,0.92c0.75,0.32,1.51,0.64,2.26,0.96c0.72,0.31,1.43,0.61,2.15,0.91c0.72,0.3,1.43,0.61,2.21,0.94
			c0.41-0.24,0.83-0.47,1.25-0.73c6.7-4.06,13.41-8.11,20.1-12.18c0.71-0.43,1.45-0.71,2.27-0.86c14.54-2.75,29.07-5.52,43.61-8.28
			c0.46-0.09,0.93-0.15,1.43-0.22c0,0.52-0.34,0.74-0.55,1.01c-2.17,2.75-4.35,5.48-6.52,8.22c-7.2,9.05-14.4,18.09-21.59,27.14
			c-0.5,0.63-1.06,1.12-1.74,1.53c-6.71,4.05-13.41,8.11-20.11,12.16c-0.39,0.23-0.77,0.47-1.12,0.68
			c-0.23,0.96-1.12,10.22-1.15,11.92c0.4,0.25,0.79,0,1.16-0.08c4.72-1,9.43-2.02,14.15-3.03c5.24-1.13,10.47-2.25,15.71-3.38
			c0.35-0.07,0.7-0.11,1.1-0.03c-0.64,0.33-1.27,0.67-1.91,0.98c-4.32,2.08-8.64,4.15-12.95,6.24c-3.58,1.73-7.14,3.48-10.72,5.21
			c-3.65,1.77-7.31,3.52-10.96,5.28c-0.38,0.18-0.75,0.31-1.17,0.32c-4.37,0.16-8.74,0.34-13.11,0.5c-0.16,0.01-0.32-0.02-0.46-0.03
			c-0.03-0.08-0.05-0.12-0.05-0.16c0-0.03,0.03-0.08,0.05-0.09c2.81-1.85,5.62-3.69,8.43-5.54c0.03-0.02,0.05-0.06,0.15-0.18
			c0.11-3.58,0.21-7.26,0.32-10.97c-0.81-0.67-1.71-1.15-2.57-1.69c-0.9-0.57-1.8-1.13-2.71-1.7c-0.86-0.54-1.73-1.08-2.6-1.62
			c-2.37,1.44-4.68,2.83-6.98,4.23c-0.01,0.61,0.33,1.05,0.59,1.51c0.23,0.42,0.31,0.81,0.21,1.3c-1.01,4.81-2.01,9.63-3.01,14.45
			c-0.02,0.08-0.07,0.14-0.11,0.22c-0.28,0.12-0.34-0.13-0.43-0.29c-1.39-2.34-2.77-4.69-4.17-7.02c-0.24-0.41-0.34-0.82-0.33-1.29
			c0.05-1.45,0.04-2.89,0.12-4.34c0.04-0.74-0.09-1.38-0.52-1.98c-0.24-0.33-0.42-0.7-0.66-1.11c-0.35,0.18-0.62,0.32-0.96,0.49
			c-0.13-0.14-0.29-0.27-0.38-0.44c-1.54-2.59-3.07-5.18-4.6-7.77c-0.1-0.17-0.15-0.37-0.23-0.58c0.28-0.21,0.53-0.4,0.82-0.62
			c-0.27-0.69-0.64-1.28-1.05-1.84c-0.18-0.25-0.5-0.41-0.79-0.56c-1.34-0.7-2.69-1.39-4.05-2.07c-0.41-0.21-0.74-0.47-0.98-0.88
			c-1.39-2.39-2.81-4.76-4.21-7.14c-0.06-0.1-0.08-0.22-0.15-0.43c0.2,0.01,0.36-0.02,0.49,0.02c4.63,1.37,9.26,2.74,13.9,4.1
			c0.47,0.14,0.78,0.38,1.04,0.79c0.28,0.45,0.5,0.95,0.98,1.22c0.92-0.38,6.04-3.47,6.96-4.18c0.08-0.91-0.34-7.9-0.55-9.25
			C626.61,798.97,619.06,795.12,617.45,794.47z"/>
	</g>
	<g id="Isolation_Mode_00000149368335959233234600000013624784908626565782_">
	</g>
	<g id="Isolation_Mode_00000093153518498487479220000008540903874771820732_">
	</g>
</g>
<g id="NOTES">
</g>
</svg>
