<?xml version="1.0" encoding="utf-8"?>
<!-- Generator: Adobe Illustrator 25.4.1, SVG Export Plug-In . SVG Version: 6.00 Build 0)  -->
<svg version="1.1" xmlns="http://www.w3.org/2000/svg" xmlns:xlink="http://www.w3.org/1999/xlink" x="0px" y="0px"
	 viewBox="0 0 1080 1080" style="enable-background:new 0 0 1080 1080;" xml:space="preserve">
<style type="text/css">
	.st0{display:none;}
	.st1{display:inline;}
	.st2{fill:#FFFFFF;}
	.st3{fill:#99CCFF;}
	.st4{fill:#AAAAAA;}
	.st5{fill:none;stroke:#FFFFFF;stroke-width:2.2;stroke-miterlimit:10;}
	.st6{fill:#70E400;}
	
		.st7{fill:none;stroke:#70E400;stroke-width:0.9825;stroke-miterlimit:10;stroke-dasharray:6.5693,6.5694,6.5694,6.5694,6.5694,6.5694;}
	
		.st8{fill:none;stroke:#B3B3B3;stroke-width:0.9825;stroke-miterlimit:10;stroke-dasharray:6.5694,6.5694,6.5694,6.5694,6.5694,6.5694;}
	
		.st9{fill:none;stroke:#66CCFF;stroke-width:0.9825;stroke-miterlimit:10;stroke-dasharray:6.5694,6.5694,6.5694,6.5694,6.5694,6.5694;}
	.st10{fill:#FF0000;}
	.st11{fill:#66CCFF;}
	.st12{fill:none;stroke:#66CCFF;stroke-width:1.9651;stroke-miterlimit:10;}
	.st13{fill:none;stroke:#FF0000;stroke-width:1.9651;stroke-miterlimit:10;}
	.st14{fill:none;stroke:#FFFFFF;stroke-width:1.0593;stroke-miterlimit:10;}
	.st15{fill:none;stroke:#000000;stroke-width:1.0593;stroke-miterlimit:10;}
	.st16{fill:none;stroke:#000000;stroke-width:2.2;stroke-miterlimit:10;}
	
		.st17{fill:none;stroke:#AAAAAA;stroke-width:3.8806;stroke-miterlimit:10;stroke-dasharray:19.4032,19.4032,19.4032,19.4032,19.4032,19.4032;}
</style>
<g id="Background__x28_turn_off_for_transparant_logos_x29_" class="st0">
	<rect x="-35.88" y="-35.88" class="st1" width="1151.77" height="1151.77"/>
</g>
<g id="Artwork">
	<g id="Isolation_Mode_00000072977325917253886790000016600931420103765417_">
	</g>
	<g id="Isolation_Mode_00000033342632443773965340000015124181062309927071_">
	</g>
	<g id="Isolation_Mode">
	</g>
	<g>
		<g>
			<path class="st2" d="M727.72,659.63c-1.96,1.64-3.92,3.27-5.89,4.88c-18.02,14.87-36.81,28.8-56.17,41.88
				c-19.33,13.11-39.29,25.3-59.78,36.49c-20.49,11.2-41.5,21.41-63,30.48c-21.5,9.06-43.45,17.03-65.8,23.63
				c-22.36,6.54-45.09,11.88-68.08,15.47c-5.75,0.85-11.5,1.75-17.28,2.37c-5.77,0.76-11.56,1.21-17.35,1.74
				c-2.89,0.26-5.8,0.37-8.7,0.56l-4.35,0.26c-1.45,0.08-2.9,0.09-4.35,0.15l-8.71,0.24l-8.7-0.02c-23.2-0.24-46.37-2.75-68.85-8.14
				c-11.21-2.78-22.23-6.26-32.9-10.59l-3.98-1.67c-1.32-0.57-2.67-1.08-3.95-1.73l-7.78-3.72l-7.58-4.11
				c-1.28-0.65-2.47-1.46-3.7-2.19l-3.67-2.25c-3.26-2.06-6.44-4.24-9.55-6.5h-14.41c6.07,5.11,12.46,9.83,19.13,14.11l3.84,2.38
				c1.29,0.78,2.54,1.63,3.87,2.32l7.91,4.35l8.11,3.95c1.34,0.69,2.74,1.23,4.12,1.83l4.14,1.77c11.1,4.58,22.54,8.28,34.15,11.24
				c23.26,5.75,47.13,8.53,70.97,8.96l8.94,0.1l8.93-0.18c1.49-0.04,2.98-0.04,4.47-0.11l4.46-0.23c2.97-0.17,5.95-0.27,8.92-0.51
				c5.93-0.49,11.87-0.91,17.78-1.64c5.92-0.59,11.81-1.46,17.7-2.28c11.75-1.82,23.46-3.93,35.04-6.57
				c11.62-2.51,23.09-5.6,34.52-8.83c22.79-6.68,45.18-14.68,67.04-23.91c21.85-9.26,43.22-19.62,63.98-31.07
				c20.76-11.46,40.95-23.93,60.49-37.32c19.5-13.45,38.41-27.77,56.54-43.03c4.88-4.08,9.69-8.26,14.44-12.5L727.72,659.63z"/>
			<path class="st2" d="M261.78,357.87c-16.55,16.87-32.28,34.57-46.88,53.19c-14.58,18.63-28.08,38.13-40.14,58.53
				c-12.05,20.4-22.66,41.7-31.25,63.85c-8.57,22.15-15.11,45.18-18.68,68.78c-3.46,23.59-3.96,47.82,0.1,71.54
				c1.95,11.86,5.19,23.52,9.47,34.79c3.57,9.34,8.05,18.32,13.22,26.89l4.88-8.47c-3.95-6.88-7.43-14.04-10.31-21.45
				c-4.13-10.7-7.3-21.8-9.22-33.15c-4.02-22.69-3.69-46.1-0.46-69.03c3.34-22.96,9.59-45.5,17.87-67.27
				c8.29-21.78,18.61-42.8,30.38-62.97c11.77-20.18,25-39.52,39.31-58.03c14.33-18.49,29.8-36.11,46.11-52.92
				c32.71-33.53,68.91-63.66,107.58-90.17c9.67-6.62,19.48-13.05,29.44-19.23c9.98-6.16,20.09-12.09,30.34-17.79
				c1.2-0.67,2.42-1.32,3.62-1.98l0.22-0.38l0.11,0.2c8.97-4.9,18.04-9.62,27.21-14.14c10.52-5.19,21.17-10.11,31.96-14.71
				c0.24-0.1,0.48-0.2,0.73-0.31l-2.02-3.5c-0.09,0.04-0.18,0.07-0.27,0.11c-43.59,18.12-85.23,40.86-124.35,67.31
				C331.65,294.06,294.99,324.22,261.78,357.87z"/>
			<path class="st2" d="M903.25,273.29c-4.3-11-9.86-21.5-16.35-31.34c-6.59-9.79-14.13-18.95-22.64-27.13
				c-8.52-8.16-17.82-15.52-27.81-21.78c-19.91-12.68-42.13-21.47-64.98-27.16c-22.9-5.65-46.46-8.39-70.02-8.83
				c-23.58-0.45-47.17,1.29-70.5,4.73c-6.57,0.97-13.13,2.09-19.66,3.32l0.56,0.98l-0.96,1.65c6.77-1.38,13.57-2.64,20.39-3.73
				c23.18-3.67,46.65-5.69,70.14-5.44c23.47,0.29,46.97,2.78,69.79,8.34c11.41,2.77,22.61,6.4,33.48,10.83
				c10.88,4.41,21.37,9.77,31.27,16.08c9.93,6.26,19.16,13.6,27.61,21.73c8.44,8.15,15.91,17.27,22.44,27.01
				c6.37,9.84,11.8,20.3,15.98,31.25c4.14,10.96,7.29,22.3,9.17,33.86c3.91,23.13,3.27,46.83-0.22,69.96
				c-3.62,23.14-10.26,45.74-18.85,67.49c-8.63,21.76-19.31,42.67-31.39,62.69c-1.77,2.93-3.58,5.84-5.41,8.73l3.4,5.9
				c2.36-3.89,4.69-7.79,6.94-11.74c11.74-20.55,22-41.96,30.24-64.14c8.26-22.16,14.41-45.14,17.7-68.56
				c3.2-23.41,3.39-47.34-0.78-70.62C910.78,295.71,907.52,284.3,903.25,273.29z"/>
		</g>
		<g>
			<polygon class="st2" points="582.2,350.31 650.17,232.58 963.8,776.85 544.05,776.85 611.98,659.18 760.19,659.18 650.09,468.12 
				577.07,594.6 441.2,594.6 582.22,350.34 			"/>
			<polygon class="st3" points="543.78,283.64 543.88,283.8 611.85,166.07 543.78,47.96 475.7,166.11 543.67,283.84 			"/>
			<polygon class="st3" points="541.14,659.18 540.05,659.18 539.78,659.18 404.18,659.18 403.91,659.18 327.38,659.18 
				424.53,490.6 505.34,350.35 437.37,232.62 322.57,431.85 123.77,776.85 473.2,776.85 			"/>
		</g>
		<path d="M663.83,713.57c-2.38,3.41-5.12,6.33-7.98,9.07c-2.87,2.72-5.9,5.24-9.04,7.56c-3.15,2.33-6.49,4.34-10.01,6.05
			c-3.53,1.7-7.1,3.31-10.58,5.07c-3.49,1.74-6.99,3.46-10.5,5.15c-3.54,1.64-7.09,3.25-10.65,4.84c-7.15,3.11-14.34,6.11-21.65,8.8
			l-0.47-0.95c6.55-4.19,13.12-8.3,19.61-12.53c3.26-2.09,6.5-4.2,9.72-6.33c3.25-2.09,6.47-4.2,9.69-6.34
			c3.22-2.13,6.31-4.45,9.42-6.73c3.12-2.27,6.38-4.3,9.81-6.06c3.43-1.77,6.95-3.4,10.59-4.85c3.65-1.45,7.39-2.77,11.46-3.64
			L663.83,713.57z"/>
		<path d="M620.85,709.16c-2.95,1.65-5.94,3.32-8.94,5c-0.28-0.37,0.04-0.58,0.16-0.79c1.74-3.03,3.5-6.05,5.26-9.07
			c0.27-0.46,0.57-0.91,0.8-1.39c0.44-0.92,1.13-1.59,1.93-2.18c2.48-1.81,4.95-3.63,7.42-5.46c2.43-1.8,4.86-3.63,7.29-5.43
			c2.47-1.83,4.95-3.64,7.41-5.47c2.47-1.83,4.93-3.67,7.39-5.5c0.82-0.61,1.65-1.21,2.52-1.84c-0.02,0.55-0.42,0.81-0.69,1.13
			c-4.75,5.71-9.52,11.41-14.28,17.11c-1.76,2.11-3.52,4.22-5.28,6.34c-0.23,0.28-0.45,0.57-0.72,0.93c0.7,0.47,1.45,0.68,2.14,1
			c0.71,0.32,1.43,0.61,2.14,0.92c0.75,0.32,1.5,0.64,2.26,0.96c0.71,0.3,1.43,0.61,2.14,0.91c0.71,0.3,1.43,0.61,2.21,0.94
			c0.41-0.24,0.83-0.47,1.24-0.72c6.69-4.05,13.38-8.09,20.06-12.15c0.71-0.43,1.45-0.71,2.26-0.86
			c14.51-2.74,29.02-5.51,43.52-8.26c0.46-0.09,0.93-0.15,1.43-0.22c0,0.52-0.34,0.74-0.55,1.01c-2.16,2.74-4.34,5.47-6.51,8.2
			c-7.18,9.03-14.37,18.05-21.54,27.09c-0.5,0.62-1.06,1.12-1.73,1.53c-6.69,4.04-13.38,8.09-20.07,12.14
			c-0.38,0.23-0.77,0.47-1.11,0.67c-0.23,0.96-1.12,10.2-1.15,11.89c0.39,0.25,0.78,0,1.16-0.08c4.71-1,9.41-2.01,14.12-3.03
			c5.22-1.12,10.45-2.25,15.67-3.37c0.35-0.07,0.7-0.11,1.09-0.03c-0.64,0.33-1.26,0.67-1.91,0.98c-4.31,2.08-8.62,4.14-12.93,6.23
			c-3.57,1.73-7.13,3.48-10.7,5.2c-3.64,1.76-7.29,3.51-10.94,5.27c-0.37,0.18-0.74,0.31-1.16,0.32c-4.36,0.16-8.72,0.33-13.08,0.5
			c-0.16,0.01-0.32-0.02-0.46-0.03c-0.03-0.08-0.05-0.12-0.05-0.16c0-0.03,0.03-0.08,0.05-0.09c2.8-1.84,5.61-3.69,8.41-5.53
			c0.03-0.02,0.05-0.06,0.15-0.18c0.1-3.58,0.21-7.24,0.32-10.95c-0.81-0.66-1.71-1.14-2.56-1.69c-0.9-0.57-1.8-1.13-2.7-1.7
			c-0.86-0.54-1.72-1.08-2.59-1.62c-2.37,1.43-4.67,2.83-6.97,4.22c-0.01,0.61,0.33,1.05,0.59,1.51c0.23,0.42,0.31,0.81,0.21,1.29
			c-1.01,4.8-2,9.61-3,14.42c-0.02,0.08-0.07,0.14-0.11,0.22c-0.28,0.12-0.34-0.13-0.43-0.29c-1.39-2.33-2.77-4.68-4.16-7.01
			c-0.24-0.41-0.34-0.82-0.32-1.29c0.05-1.44,0.04-2.89,0.12-4.33c0.04-0.74-0.09-1.38-0.52-1.98c-0.24-0.33-0.42-0.69-0.66-1.1
			c-0.35,0.18-0.62,0.32-0.96,0.49c-0.13-0.14-0.29-0.27-0.38-0.43c-1.54-2.58-3.07-5.17-4.59-7.75c-0.1-0.17-0.15-0.37-0.23-0.58
			c0.28-0.21,0.53-0.4,0.81-0.62c-0.27-0.69-0.64-1.28-1.05-1.84c-0.18-0.25-0.5-0.41-0.78-0.56c-1.34-0.7-2.69-1.39-4.04-2.07
			c-0.41-0.21-0.74-0.47-0.98-0.88c-1.39-2.38-2.8-4.75-4.2-7.12c-0.06-0.1-0.08-0.22-0.15-0.43c0.2,0.01,0.35-0.02,0.49,0.02
			c4.62,1.36,9.24,2.74,13.87,4.1c0.46,0.14,0.78,0.38,1.03,0.79c0.27,0.45,0.5,0.95,0.98,1.21c0.92-0.38,6.03-3.46,6.94-4.17
			c0.08-0.91-0.34-7.89-0.55-9.23C629.99,713.65,622.46,709.81,620.85,709.16z"/>
	</g>
	<g id="Isolation_Mode_00000149368335959233234600000013624784908626565782_">
	</g>
	<g id="Isolation_Mode_00000093153518498487479220000008540903874771820732_">
	</g>
</g>
<g id="NOTES">
	<rect x="-703.5" y="-1954.56" class="st17" width="4688.73" height="3360.97"/>
	<rect x="-703.5" y="-1954.56" class="st17" width="4688.73" height="3360.97"/>
</g>
</svg>
